<?xml version="1.0" encoding="UTF-8" standalone="no"?>
<!-- Generator: Adobe Illustrator 18.1.1, SVG Export Plug-In . SVG Version: 6.00 Build 0)  -->
<svg xmlns:dc="http://purl.org/dc/elements/1.1/" xmlns:cc="http://creativecommons.org/ns#" xmlns:rdf="http://www.w3.org/1999/02/22-rdf-syntax-ns#" xmlns:svg="http://www.w3.org/2000/svg" xmlns="http://www.w3.org/2000/svg" xmlns:sodipodi="http://sodipodi.sourceforge.net/DTD/sodipodi-0.dtd" xmlns:inkscape="http://www.inkscape.org/namespaces/inkscape" version="1.1" id="Layer_1" x="0px" y="0px" viewBox="-1333 412.4 175.89999 24.100001" enable-background="new -1333 412.4 198.1 34.3" xml:space="preserve" sodipodi:docname="sbolhub_logo_sl_dark.svg" width="175.89999" height="24.1" inkscape:version="0.92.1 r15371"><metadata id="metadata4931"><rdf:RDF><cc:Work rdf:about=""><dc:format>image/svg+xml</dc:format><dc:type rdf:resource="http://purl.org/dc/dcmitype/StillImage"/><dc:title/></cc:Work></rdf:RDF></metadata><defs id="defs4929"/><sodipodi:namedview pagecolor="#ffffff" bordercolor="#666666" borderopacity="1" objecttolerance="10" gridtolerance="10" guidetolerance="10" inkscape:pageopacity="0" inkscape:pageshadow="2" inkscape:window-width="1920" inkscape:window-height="1021" id="namedview4927" showgrid="false" inkscape:zoom="6.3301361" inkscape:cx="99.050003" inkscape:cy="17.15" inkscape:window-x="0" inkscape:window-y="24" inkscape:window-maximized="1" inkscape:current-layer="Layer_1"/><path d="m -1296.4,436.5 h -15.9 c -2.2,0 -4.1,-1.8 -4.1,-4.1 v -15.9 c 0,-2.2 1.8,-4.1 4.1,-4.1 h 15.9 c 2.2,0 4.1,1.8 4.1,4.1 v 15.9 c 0,2.3 -1.9,4.1 -4.1,4.1 z m -15.9,-23 c -1.7,0 -3.1,1.4 -3.1,3.1 v 15.9 c 0,1.7 1.4,3.1 3.1,3.1 h 15.9 c 1.7,0 3.1,-1.4 3.1,-3.1 v -15.9 c 0,-1.7 -1.4,-3.1 -3.1,-3.1 z" id="path4856" inkscape:connector-curvature="0" style="fill:#2c3e50"/><path d="m -1306.3,427.9 c -0.1,0.6 -0.8,0.9 -1.4,0.8 -0.6,-0.2 -1,-0.8 -0.9,-1.3 0.1,-0.6 0.8,-0.9 1.4,-0.8 0.7,0.1 1.1,0.7 0.9,1.3 z" id="path4858" inkscape:connector-curvature="0" style="fill:#2c3e50"/><ellipse transform="rotate(-75.823398)" cx="-738.96918" cy="-1160.9802" rx="1.0999484" ry="1.1999438" id="ellipse4860" style="fill:#2c3e50;stroke-width:0.99995315"/><path d="m -1298.5,426.2 c -0.1,0.6 -0.8,0.9 -1.4,0.8 -0.6,-0.2 -1,-0.8 -0.9,-1.3 0.2,-0.6 0.8,-0.9 1.4,-0.8 0.7,0.1 1,0.7 0.9,1.3 z" id="path4862" inkscape:connector-curvature="0" style="fill:#2c3e50"/><path d="m -1300.8,430.2 c -0.2,0.6 -0.8,0.9 -1.4,0.8 -0.6,-0.2 -1,-0.8 -0.9,-1.3 0.2,-0.6 0.8,-0.9 1.4,-0.8 0.7,0.1 1.1,0.7 0.9,1.3 z" id="path4864" inkscape:connector-curvature="0" style="fill:#2c3e50"/><rect x="-1310.6001" y="429.89999" width="1.4" height="1.4" id="rect4866" style="fill:#2c3e50"/><rect x="-1304.3" y="423.89999" width="1.4" height="1.4" id="rect4868" style="fill:#2c3e50"/><path d="m -1308.5,422.5 c -1.8,0 -3.3,-1.5 -3.3,-3.3 0,-1.8 1.5,-3.4 3.3,-3.4 1.8,0 3.3,1.5 3.3,3.4 0,1.8 -1.4,3.3 -3.3,3.3 z m 0,-5.9 c -1.4,0 -2.5,1.1 -2.5,2.5 0,1.4 1.1,2.5 2.5,2.5 1.4,0 2.5,-1.1 2.5,-2.5 0,-1.4 -1.1,-2.5 -2.5,-2.5 z" id="path4870" inkscape:connector-curvature="0" style="fill:#d25627"/><rect x="508.93613" y="-1265.3627" transform="rotate(-129.88847)" width="1.1000082" height="1.5000112" id="rect4872" style="fill:#2c3e50;stroke-width:1.00000751"/><polygon points="-1296.9,424.4 -1296.2,425.2 -1295.1,424.3 -1295.7,423.5 " id="polygon4874" style="fill:#2c3e50" transform="translate(-2.2000428,-5.499994)"/><path d="m -1296.3,421.4 0.3,-0.3 c 0.2,-0.2 0.3,-0.5 0.1,-0.8 l -1.1,0.9 c 0.2,0.4 0.5,0.4 0.7,0.2 z" id="path4876" inkscape:connector-curvature="0" style="fill:#2c3e50"/><path d="m -1298.3,417.6 -0.4,-0.5 c -0.2,-0.2 -0.5,-0.3 -0.8,-0.1 l -0.3,0.3 c -0.2,0.2 -0.3,0.5 -0.1,0.8 l 0.4,0.5 z" id="path4878" inkscape:connector-curvature="0" style="fill:#2c3e50"/><rect x="-1293.2001" y="417.60001" width="7.5" height="1" id="rect4880" style="fill:#2c3e50"/><circle cx="-1285.1001" cy="418.20001" id="circle4882" r="1.9" style="fill:#d25627"/><path d="m -1285.1,420.7 c -1.3,0 -2.4,-1.1 -2.4,-2.4 0,-1.3 1.1,-2.4 2.4,-2.4 1.3,0 2.4,1.1 2.4,2.4 0,1.3 -1.1,2.4 -2.4,2.4 z m 0,-3.9 c -0.8,0 -1.4,0.6 -1.4,1.4 0,0.8 0.6,1.4 1.4,1.4 0.8,0 1.4,-0.6 1.4,-1.4 0,-0.7 -0.6,-1.4 -1.4,-1.4 z" id="path4884" inkscape:connector-curvature="0" style="fill:#2c3e50"/><rect x="-1292.4" y="426.29999" width="13.3" height="1" id="rect4886" style="fill:#2c3e50"/><circle cx="-1278.6001" cy="426.89999" id="circle4888" r="1.9" style="fill:#2c3e50"/><path d="m -1278.6,429.3 c -1.3,0 -2.4,-1.1 -2.4,-2.4 0,-1.3 1.1,-2.4 2.4,-2.4 1.3,0 2.4,1.1 2.4,2.4 0.1,1.3 -1,2.4 -2.4,2.4 z m 0,-3.9 c -0.8,0 -1.4,0.6 -1.4,1.4 0,0.8 0.6,1.4 1.4,1.4 0.8,0 1.4,-0.6 1.4,-1.4 0.1,-0.7 -0.6,-1.4 -1.4,-1.4 z" id="path4890" inkscape:connector-curvature="0" style="fill:#2c3e50"/><rect x="-1323.5001" y="427.29999" width="7.5" height="1" id="rect4892" style="fill:#2c3e50"/><circle cx="-1324.0001" cy="427.70001" id="circle4894" r="1.9" style="fill:#d25627"/><path d="m -1324,430.1 c -1.3,0 -2.4,-1.1 -2.4,-2.4 0,-1.3 1.1,-2.4 2.4,-2.4 1.3,0 2.4,1.1 2.4,2.4 0,1.3 -1.1,2.4 -2.4,2.4 z m 0,-3.9 c -0.8,0 -1.4,0.6 -1.4,1.4 0,0.8 0.6,1.4 1.4,1.4 0.8,0 1.4,-0.6 1.4,-1.4 0,-0.7 -0.6,-1.4 -1.4,-1.4 z" id="path4896" inkscape:connector-curvature="0" style="fill:#2c3e50"/><rect x="-1329.0001" y="418.60001" width="13.3" height="1" id="rect4898" style="fill:#2c3e50"/><circle cx="-1330.6001" cy="419" id="circle4900" r="1.9" style="fill:#2c3e50"/><path d="m -1330.6,421.5 c -1.3,0 -2.4,-1.1 -2.4,-2.4 0,-1.3 1.1,-2.4 2.4,-2.4 1.3,0 2.4,1.1 2.4,2.4 0,1.3 -1,2.4 -2.4,2.4 z m 0,-3.9 c -0.8,0 -1.4,0.6 -1.4,1.4 0,0.8 0.6,1.4 1.4,1.4 0.8,0 1.4,-0.6 1.4,-1.4 0,-0.7 -0.6,-1.4 -1.4,-1.4 z" id="path4902" inkscape:connector-curvature="0" style="fill:#2c3e50"/><g id="g4922" transform="translate(-2.2000428,-5.499994)"><path d="m -1254,432.4 c 0.4,0.5 0.6,0.9 0.6,1.5 0,1.4 -1.1,2.1 -2.3,2.1 h -4.1 c -0.7,0 -1.3,-0.1 -1.9,-0.6 -0.5,-0.4 -0.9,-1.1 -0.9,-1.7 0,-0.6 0.3,-1.1 1,-1.1 0.5,0 0.9,0.4 0.9,0.9 0,0.6 0.3,0.6 0.8,0.6 h 4 c 0.1,0 0.6,0.1 0.6,-0.2 0,-0.1 -0.3,-0.4 -0.3,-0.5 l -6.3,-8.1 c -0.4,-0.5 -0.6,-0.9 -0.6,-1.5 0,-0.7 0.4,-1.4 1,-1.8 0.5,-0.3 0.9,-0.3 1.5,-0.3 h 3.9 c 0.7,0 1.3,0.1 1.8,0.6 0.5,0.4 0.9,1.1 0.9,1.8 0,0.6 -0.3,1.1 -1,1.1 -0.6,0 -0.9,-0.4 -0.9,-0.9 0,-0.6 -0.3,-0.7 -0.9,-0.7 h -3.9 c -0.2,0 -0.6,-0.1 -0.6,0.3 0,0.2 0.2,0.4 0.3,0.5 z" id="path4904" inkscape:connector-curvature="0" style="fill:#2c3e50"/><path d="m -1243.3,428.3 v -1 c 0,-0.6 0.1,-1.2 0.9,-1.2 0.8,0 0.9,0.6 0.9,1.2 v 0.7 c 0,0.4 0,0.7 -0.2,1.1 l -4.5,9.7 c -0.4,0.8 -0.6,0.9 -1.4,0.9 h -1.4 c -0.5,0 -1.2,-0.1 -1.2,-0.9 0,-0.8 0.6,-0.9 1.2,-0.9 h 1.2 l 1.3,-2.7 h -0.1 c -0.7,0 -0.8,-0.3 -1.1,-0.9 l -2.2,-4.8 c -0.2,-0.5 -0.4,-0.9 -0.4,-1.5 v -0.8 c 0,-0.6 0.1,-1.2 0.9,-1.2 0.8,0 0.9,0.6 0.9,1.2 v 1 l 2.4,5.2 h 0.4 z" id="path4906" inkscape:connector-curvature="0" style="fill:#2c3e50"/><path d="m -1235.8,429.7 v 5.1 c 0,0.6 -0.1,1.2 -0.9,1.2 -0.8,0 -0.9,-0.6 -0.9,-1.2 v -7.4 c 0,-0.6 0.1,-1.3 0.9,-1.3 0.8,0 0.9,0.7 0.9,1.3 v 0.2 0 l 1.4,-0.9 c 0.5,-0.3 1,-0.6 1.5,-0.6 h 1.3 c 0.7,0 1.1,0.2 1.6,0.6 0.8,0.7 0.8,1.4 0.8,2.4 l 0.2,5.6 c 0,0.6 -0.1,1.3 -0.9,1.3 -0.7,0 -0.9,-0.6 -0.9,-1.2 l -0.2,-5.5 c 0,-1.1 -0.1,-1.5 -1.2,-1.5 h -0.6 c -0.2,0 -0.4,0.1 -0.6,0.2 z" id="path4908" inkscape:connector-curvature="0" style="fill:#2c3e50"/><path d="m -1225.2,421.7 h 5.2 c 2.7,0 3.9,1.7 3.9,4.3 0,1.1 -0.2,2 -1.2,2.9 1.1,1 1.2,2 1.2,3.3 0,2.4 -1.6,3.8 -3.9,3.8 h -5.2 z m 1.8,6.3 h 3.3 c 1.3,0 2.1,-0.6 2.1,-2 0,-1.5 -0.4,-2.4 -2.1,-2.4 h -3.3 z m 0,6.2 h 3.3 c 1.3,0 2.1,-0.6 2.1,-2 0,-1.5 -0.4,-2.4 -2.1,-2.4 h -3.3 z" id="path4910" inkscape:connector-curvature="0" style="fill:#2c3e50"/><path d="m -1207.2,434.3 h 1.3 c 0.6,0 1.2,0.1 1.2,0.9 0,0.8 -0.7,0.9 -1.2,0.9 h -4.5 c -0.5,0 -1.2,-0.1 -1.2,-0.9 0,-0.8 0.6,-0.9 1.2,-0.9 h 1.4 v -6.4 h -1.4 c -0.5,0 -1.2,-0.1 -1.2,-0.9 0,-0.8 0.6,-0.9 1.2,-0.9 h 1.9 c 1,0 1.3,0.2 1.3,1.2 z m -2.7,-11.8 c 0,-0.6 0.4,-0.8 0.8,-0.8 h 1 c 0.5,0 0.8,0.2 0.8,0.8 v 0.8 c 0,0.6 -0.4,0.8 -0.8,0.8 h -1 c -0.5,0 -0.8,-0.2 -0.8,-0.8 z" id="path4912" inkscape:connector-curvature="0" style="fill:#2c3e50"/><path d="m -1201.4,429.4 c 0,-1.2 0.2,-1.6 1.1,-2.3 0.9,-0.7 1.3,-1 2.5,-1 h 1.4 c 1.2,0 1.6,0.3 2.5,1 0.9,0.7 1.1,1.1 1.1,2.3 v 3.3 c 0,1.2 -0.3,1.6 -1.2,2.4 -0.9,0.8 -1.3,0.9 -2.4,0.9 h -1.4 c -1.1,0 -1.5,-0.1 -2.4,-0.9 -0.9,-0.8 -1.2,-1.2 -1.2,-2.4 z m 1.8,3.4 c 0,0.4 0.1,0.6 0.6,1.1 0.4,0.3 0.7,0.5 1.2,0.5 h 1.4 c 0.6,0 0.8,-0.1 1.2,-0.5 0.5,-0.4 0.6,-0.7 0.6,-1.1 v -3.3 c 0,-0.4 -0.1,-0.6 -0.6,-1.1 -0.4,-0.3 -0.7,-0.5 -1.2,-0.5 h -1.4 c -0.6,0 -0.8,0.1 -1.2,0.5 -0.5,0.4 -0.6,0.7 -0.6,1.1 z" id="path4914" inkscape:connector-curvature="0" style="fill:#2c3e50"/><path d="m -1187.2,429.8 v 5.3 c 0,0.6 -0.3,0.9 -0.9,0.9 -0.7,0 -0.9,-0.3 -0.9,-0.9 v -12.5 c 0,-0.6 0.3,-0.9 0.9,-0.9 0.7,0 0.9,0.3 0.9,0.9 v 5.3 h 5.4 v -5.3 c 0,-0.6 0.3,-0.9 0.9,-0.9 0.7,0 0.9,0.3 0.9,0.9 v 12.5 c 0,0.6 -0.3,0.9 -0.9,0.9 -0.7,0 -0.9,-0.3 -0.9,-0.9 v -5.3 z" id="path4916" inkscape:connector-curvature="0" style="fill:#d25627"/><path d="m -1167.6,434.7 c 0,0.4 0.1,1.3 -0.9,1.3 -0.8,0 -0.9,-0.6 -0.9,-1.2 v -0.3 l -1.4,0.9 c -0.6,0.4 -1.1,0.6 -1.5,0.6 h -1.3 c -0.5,0 -1,-0.1 -1.6,-0.6 -0.8,-0.7 -0.8,-1.4 -0.8,-2.4 l -0.2,-5.6 c 0,-0.6 0.1,-1.3 0.9,-1.3 0.8,0 0.8,0.6 0.9,1.2 l 0.2,5.4 c 0,0.4 0,0.9 0.2,1.1 0.2,0.2 0.6,0.4 1,0.4 h 0.6 c 0.2,0 0.4,-0.1 0.6,-0.2 l 2.6,-1.6 v -5.1 c 0,-0.6 0.1,-1.2 0.9,-1.2 0.8,0 0.9,0.6 0.9,1.2 v 7.4 z" id="path4918" inkscape:connector-curvature="0" style="fill:#d25627"/><path d="m -1161.9,427.4 0.3,-0.3 c 0.6,-0.6 0.9,-1 1.8,-1 h 2 c 0.5,0 0.9,0.3 1.3,0.6 l 0.6,0.5 c 0.7,0.6 1,1.1 1,2 v 3.6 c 0,0.9 -0.3,1.4 -1,2 l -0.6,0.5 c -0.4,0.3 -0.9,0.6 -1.4,0.6 h -1.8 c -0.7,0 -1.2,-0.4 -1.7,-0.9 l -0.4,-0.4 v 0.1 c 0,0.6 -0.2,1.2 -0.9,1.2 -0.8,0 -0.9,-0.6 -0.9,-1.2 v -11.1 c 0,-0.6 0.1,-1.2 0.9,-1.2 0.8,0 0.9,0.6 0.9,1.2 v 3.8 z m 0,4.4 c 0,0.6 0.1,0.8 0.5,1.2 l 1,0.9 c 0.2,0.2 0.5,0.4 0.7,0.4 h 1.3 c 0.3,0 0.4,-0.1 0.6,-0.2 l 0.8,-0.6 c 0.2,-0.2 0.2,-0.6 0.2,-0.9 v -3.1 c 0,-0.3 -0.1,-0.6 -0.2,-0.7 l -0.8,-0.6 c -0.1,-0.1 -0.2,-0.1 -0.4,-0.1 h -1.2 c -0.2,0 -0.5,0.1 -0.7,0.3 l -1.1,1 c -0.3,0.2 -0.5,0.5 -0.5,1.1 v 1.3 z" id="path4920" inkscape:connector-curvature="0" style="fill:#d25627"/></g><g id="g4924" transform="translate(-2.2000428,-5.499994)"/></svg>